<svg xmlns="http://www.w3.org/2000/svg" viewBox="0 0 40 52" width="40" height="52">
  <!-- Pin body -->
  <path d="M20 2 C10.6 2 3 9.6 3 19 C3 31.2 20 50 20 50 C20 50 37 31.2 37 19 C37 9.6 29.4 2 20 2 Z" fill="#D94F3D" stroke="#9E2A1C" stroke-width="1.5"/>
  <!-- Pin inner circle background -->
  <circle cx="20" cy="19" r="11" fill="#FFFFFF" opacity="0.95"/>
  <!-- Flame shape -->
  <path d="M20 10
    C20 10 16 14 16 17.5
    C16 17.5 14.5 16 15 14
    C15 14 12 17 12 20
    C12 23.5 15.6 26.5 20 26.5
    C24.4 26.5 28 23.5 28 20
    C28 16.5 24 13 24 13
    C24 15.5 22.5 16.5 22.5 16.5
    C22.5 13.5 20 10 20 10 Z"
    fill="#E87C30" stroke="none"/>
  <!-- Inner flame highlight -->
  <path d="M20 15
    C20 15 18 17.5 18 19.5
    C18 21 18.8 22 20 22
    C21.2 22 22 21 22 19.5
    C22 17.5 20 15 20 15 Z"
    fill="#F9D170" stroke="none"/>
</svg>
